<svg width="900" height="200" viewBox="0 0 900 200" xmlns="http://www.w3.org/2000/svg">
  <defs>
    <linearGradient id="heroBg" x1="0%" y1="0%" x2="100%" y2="0%">
      <stop offset="0%" stop-color="#0B8F87"/>
      <stop offset="100%" stop-color="#2563EB"/>
    </linearGradient>
  </defs>
  <rect width="900" height="200" fill="url(#heroBg)" rx="16"/>
  <!-- Grid decoration -->
  <line x1="0" y1="50" x2="900" y2="50" stroke="rgba(255,255,255,0.05)" stroke-width="1"/>
  <line x1="0" y1="100" x2="900" y2="100" stroke="rgba(255,255,255,0.05)" stroke-width="1"/>
  <line x1="0" y1="150" x2="900" y2="150" stroke="rgba(255,255,255,0.05)" stroke-width="1"/>
  <line x1="150" y1="0" x2="150" y2="200" stroke="rgba(255,255,255,0.05)" stroke-width="1"/>
  <line x1="300" y1="0" x2="300" y2="200" stroke="rgba(255,255,255,0.05)" stroke-width="1"/>
  <line x1="450" y1="0" x2="450" y2="200" stroke="rgba(255,255,255,0.05)" stroke-width="1"/>
  <line x1="600" y1="0" x2="600" y2="200" stroke="rgba(255,255,255,0.05)" stroke-width="1"/>
  <line x1="750" y1="0" x2="750" y2="200" stroke="rgba(255,255,255,0.05)" stroke-width="1"/>
  <!-- Shield Icon -->
  <g transform="translate(68, 28)">
    <path d="M32 0 L64 14 L64 60 Q64 88 32 100 Q0 88 0 60 L0 14 Z" fill="none" stroke="#10B981" stroke-width="2.5"/>
    <path d="M18 50 L28 60 L48 36" fill="none" stroke="#10B981" stroke-width="3" stroke-linecap="round" stroke-linejoin="round"/>
  </g>
  <!-- Main Title -->
  <text x="450" y="82" font-family="Arial, sans-serif" font-size="52" font-weight="bold" fill="white" text-anchor="middle" letter-spacing="6">NUTRIVISION</text>
  <!-- Accent line -->
  <rect x="310" y="97" width="280" height="2" fill="#10B981" rx="1"/>
  <!-- Subtitle -->
  <text x="450" y="128" font-family="Arial, sans-serif" font-size="14" fill="rgba(255,255,255,0.85)" text-anchor="middle" letter-spacing="3">AI-POWERED NUTRITION INTELLIGENCE</text>
  <!-- Tagline -->
  <text x="450" y="158" font-family="Arial, sans-serif" font-size="11" fill="rgba(255,255,255,0.6)" text-anchor="middle" font-style="italic">Reads your lunch faster than you can regret ordering it.</text>
  <!-- Right AI badge -->
  <circle cx="815" cy="100" r="32" fill="rgba(255,255,255,0.08)" stroke="#10B981" stroke-width="1.5"/>
  <text x="815" y="95" font-family="Arial, sans-serif" font-size="10" fill="rgba(255,255,255,0.6)" text-anchor="middle" letter-spacing="1">GEMINI</text>
  <text x="815" y="110" font-family="Arial, sans-serif" font-size="16" fill="#10B981" text-anchor="middle" font-weight="bold">1.5</text>
  <text x="815" y="124" font-family="Arial, sans-serif" font-size="9" fill="rgba(255,255,255,0.5)" text-anchor="middle" letter-spacing="1">FLASH</text>
  <!-- Version pill -->
  <rect x="376" y="168" width="148" height="22" fill="rgba(255,255,255,0.1)" rx="11"/>
  <text x="450" y="183" font-family="Arial, sans-serif" font-size="10" fill="rgba(255,255,255,0.8)" text-anchor="middle" letter-spacing="1">v1.0.0 · PWA READY</text>
</svg>
